<?xml version="1.0" encoding="UTF-8" standalone="no"?>
<!-- Svg Vector Icons : http://www.onlinewebfonts.com/icon -->

<svg
   xmlns:dc="http://purl.org/dc/elements/1.1/"
   xmlns:cc="http://creativecommons.org/ns#"
   xmlns:rdf="http://www.w3.org/1999/02/22-rdf-syntax-ns#"
   xmlns:svg="http://www.w3.org/2000/svg"
   xmlns="http://www.w3.org/2000/svg"
   xmlns:sodipodi="http://sodipodi.sourceforge.net/DTD/sodipodi-0.dtd"
   xmlns:inkscape="http://www.inkscape.org/namespaces/inkscape"
   version="1.1"
   x="0px"
   y="0px"
   viewBox="0 0 4345.934 4413.3132"
   enable-background="new 0 0 1000 1000"
   xml:space="preserve"
   id="svg2"
   inkscape:version="0.92.3 (2405546, 2018-03-11)"
   sodipodi:docname="nebula.svg"
   width="4345.9341"
   height="4413.3135"
   inkscape:export-filename="/home/eric/data/WORK/PROJECT/TOOL/NEBULA/LOGO/nebula.png"
   inkscape:export-xdpi="90"
   inkscape:export-ydpi="90"><defs
   id="defs12" /><sodipodi:namedview
   pagecolor="#ffffff"
   bordercolor="#666666"
   borderopacity="1"
   objecttolerance="10"
   gridtolerance="10"
   guidetolerance="10"
   inkscape:pageopacity="0"
   inkscape:pageshadow="2"
   inkscape:window-width="2784"
   inkscape:window-height="1515"
   id="namedview10"
   showgrid="false"
   inkscape:zoom="0.1767767"
   inkscape:cx="-809.74665"
   inkscape:cy="2394.5566"
   inkscape:window-x="169"
   inkscape:window-y="224"
   inkscape:window-maximized="0"
   inkscape:current-layer="svg2"
   fit-margin-top="150"
   fit-margin-left="150"
   fit-margin-right="150"
   fit-margin-bottom="150"
   showguides="true"
   inkscape:guide-bbox="true" /><metadata
   id="metadata4"> Svg Vector Icons : http://www.onlinewebfonts.com/icon <rdf:RDF><cc:Work
     rdf:about=""><dc:format>image/svg+xml</dc:format><dc:type
       rdf:resource="http://purl.org/dc/dcmitype/StillImage" /><dc:title></dc:title></cc:Work></rdf:RDF></metadata>






<g
   id="g5175"
   transform="translate(85.778385,1478.5956)"><g
     style="fill:#0097ff;fill-opacity:1"
     transform="matrix(6.0776046,0,0,6.0776046,531.32198,-1401.5269)"
     id="g3722"><path
       id="path3720"
       d="m 330.012,479.472 -4.658,-14.259 12.006,-3.922 89.263,-64.782 15.978,-22.104 34.043,-104.655 V 242.248 L 442.564,137.48 426.724,115.562 337.393,50.731 311.16,42.151 H 200.886 l -26.248,8.562 -79.577,57.69 5.343,-22.392 66.379,-48.131 c 0.634,-0.46 1.335,-0.818 2.08,-1.061 l 28.504,-9.298 c 0.751,-0.245 1.536,-0.37 2.326,-0.37 h 112.66 c 0.792,0 1.579,0.125 2.331,0.372 l 28.489,9.318 c 0.742,0.243 1.442,0.6 2.074,1.059 l 91.256,66.228 c 0.644,0.467 1.208,1.033 1.674,1.677 l 17.232,23.845 c 0.456,0.632 0.812,1.332 1.053,2.073 l 34.812,107.018 c 0.244,0.749 0.368,1.532 0.368,2.32 v 29.88 c 0,0.788 -0.124,1.571 -0.368,2.32 l -34.775,106.905 c -0.241,0.742 -0.597,1.441 -1.054,2.074 l -17.369,24.03 c -0.465,0.644 -1.03,1.21 -1.673,1.676 l -91.188,66.179 c -0.633,0.459 -1.333,0.816 -2.076,1.06 z"
       inkscape:connector-curvature="0"
       style="fill:#0097ff;fill-opacity:1" /></g><g
     style="fill:#0097ff;fill-opacity:1"
     transform="matrix(6.0776046,0,0,6.0776046,531.32198,-1401.5269)"
     id="g3726"><path
       id="path3724"
       d="M 312.363,484.848 H 199.64 c -0.791,0 -1.576,-0.125 -2.328,-0.371 l -28.432,-9.284 c -0.743,-0.243 -1.444,-0.6 -2.077,-1.06 L 76.232,408.404 c -0.618,-0.448 -1.164,-0.989 -1.619,-1.603 L 56.737,382.696 c -0.483,-0.651 -0.857,-1.376 -1.108,-2.147 L 20.726,273.247 c -0.244,-0.749 -0.368,-1.532 -0.368,-2.32 v -29.855 c 0,-0.788 0.124,-1.571 0.368,-2.32 L 55.588,131.578 c 0.25,-0.769 0.623,-1.493 1.104,-2.143 L 74.654,105.17 c 0.456,-0.616 1.003,-1.158 1.623,-1.607 l 24.128,-17.552 -5.343,22.392 -9.04,6.621 -16.548,22.354 -34.116,104.883 v 27.477 l 34.157,105.006 16.461,22.197 88.683,64.359 26.175,8.547 h 110.335 l 14.185,-4.634 4.658,14.259 -15.319,5.005 c -0.753,0.246 -1.539,0.371 -2.33,0.371 z"
       inkscape:connector-curvature="0"
       style="fill:#0097ff;fill-opacity:1" /></g><g
     style="fill:#0097ff;fill-opacity:1"
     transform="matrix(6.0776046,0,0,6.0776046,531.32198,-1401.5269)"
     id="g3730"><path
       id="path3728"
       d="m 256,365.488 c -1.918,0 -3.836,-0.731 -5.3,-2.194 L 148.598,261.306 c -1.408,-1.407 -2.2,-3.315 -2.2,-5.306 0,-1.991 0.792,-3.899 2.2,-5.306 L 250.7,148.706 c 2.928,-2.925 7.671,-2.925 10.601,0 l 102.103,101.988 c 1.408,1.407 2.199,3.315 2.199,5.306 0,1.991 -0.791,3.899 -2.199,5.306 L 261.301,363.294 c -1.465,1.462 -3.383,2.194 -5.301,2.194 z M 164.51,256 256,347.387 347.49,256 256,164.613 Z"
       inkscape:connector-curvature="0"
       style="fill:#0097ff;fill-opacity:1" /></g><g
     style="fill:#0097ff;fill-opacity:1"
     transform="matrix(6.0776046,0,0,6.0776046,531.32198,-1401.5269)"
     id="g3734"><path
       id="path3732"
       d="m 256,440.044 c -1.135,0 -2.271,-0.258 -3.316,-0.773 L 134.338,380.94 c -1.556,-0.767 -2.799,-2.05 -3.515,-3.63 L 77.237,259.097 c -0.892,-1.968 -0.892,-4.225 0,-6.193 l 53.586,-118.213 c 0.716,-1.581 1.959,-2.864 3.515,-3.631 L 252.684,72.729 c 2.092,-1.03 4.542,-1.029 6.631,0 l 118.346,58.332 c 1.567,0.772 2.815,2.067 3.529,3.662 l 53.154,118.713 c 0.877,1.958 0.873,4.197 -0.01,6.151 L 381.181,377.3 c -0.715,1.585 -1.959,2.872 -3.52,3.641 l -118.346,58.331 c -1.044,0.515 -2.179,0.772 -3.315,0.772 z M 143.377,368.672 256,424.183 368.617,368.675 419.276,256.487 368.605,143.32 256,87.817 143.377,143.328 92.303,256 Z"
       inkscape:connector-curvature="0"
       style="fill:#0097ff;fill-opacity:1" /></g><g
     style="fill:#0097ff;fill-opacity:1"
     transform="matrix(6.0776046,0,0,6.0776046,531.32198,-1401.5269)"
     id="g3738"><path
       id="path3736"
       d="m 154.258,263.033 c -3.672,0 -6.88,-2.699 -7.415,-6.439 L 129.966,138.586 c -0.586,-4.101 2.262,-7.9 6.362,-8.486 4.107,-0.586 7.9,2.263 8.486,6.362 l 16.877,118.008 c 0.586,4.101 -2.262,7.9 -6.362,8.486 -0.359,0.052 -0.718,0.077 -1.071,0.077 z"
       inkscape:connector-curvature="0"
       style="fill:#0097ff;fill-opacity:1" /></g><g
     style="fill:#0097ff;fill-opacity:1"
     transform="matrix(6.0776046,0,0,6.0776046,531.32198,-1401.5269)"
     id="g3742"><path
       id="path3740"
       d="m 256.478,161.883 c -0.35,0 -0.704,-0.024 -1.061,-0.075 L 136.338,144.95 c -4.101,-0.581 -6.955,-4.376 -6.375,-8.477 0.58,-4.101 4.38,-6.956 8.477,-6.375 l 119.079,16.858 c 4.101,0.581 6.955,4.376 6.374,8.477 -0.529,3.745 -3.739,6.45 -7.415,6.45 z"
       inkscape:connector-curvature="0"
       style="fill:#0097ff;fill-opacity:1" /></g><g
     style="fill:#0097ff;fill-opacity:1"
     transform="matrix(6.0776046,0,0,6.0776046,531.32198,-1401.5269)"
     id="g3746"><path
       id="path3744"
       d="m 357.742,263.033 c -0.354,0 -0.712,-0.025 -1.071,-0.077 -4.101,-0.586 -6.949,-4.386 -6.363,-8.486 l 16.877,-118.008 c 0.586,-4.101 4.393,-6.956 8.486,-6.362 4.101,0.586 6.949,4.386 6.363,8.486 l -16.877,118.008 c -0.535,3.74 -3.744,6.439 -7.415,6.439 z"
       inkscape:connector-curvature="0"
       style="fill:#0097ff;fill-opacity:1" /></g><g
     style="fill:#0097ff;fill-opacity:1"
     transform="matrix(6.0776046,0,0,6.0776046,531.32198,-1401.5269)"
     id="g3750"><path
       id="path3748"
       d="m 256.459,161.883 c -3.673,0 -6.882,-2.7 -7.416,-6.441 -0.585,-4.101 2.265,-7.899 6.365,-8.484 L 373.549,130.1 c 4.104,-0.585 7.898,2.265 8.484,6.365 0.585,4.101 -2.265,7.899 -6.365,8.484 l -118.141,16.858 c -0.358,0.051 -0.715,0.076 -1.068,0.076 z"
       inkscape:connector-curvature="0"
       style="fill:#0097ff;fill-opacity:1" /></g><g
     style="fill:#0097ff;fill-opacity:1"
     transform="matrix(6.0776046,0,0,6.0776046,531.32198,-1401.5269)"
     id="g3754"><path
       id="path3752"
       d="m 374.619,381.978 c -0.354,0 -0.71,-0.025 -1.069,-0.076 L 255.409,365.044 c -4.101,-0.585 -6.95,-4.384 -6.365,-8.484 0.585,-4.1 4.384,-6.951 8.484,-6.365 l 118.141,16.858 c 4.101,0.585 6.95,4.384 6.365,8.484 -0.534,3.74 -3.743,6.441 -7.415,6.441 z"
       inkscape:connector-curvature="0"
       style="fill:#0097ff;fill-opacity:1" /></g><g
     style="fill:#0097ff;fill-opacity:1"
     transform="matrix(6.0776046,0,0,6.0776046,531.32198,-1401.5269)"
     id="g3758"><path
       id="path3756"
       d="m 374.6,381.978 c -3.675,0 -6.885,-2.704 -7.416,-6.447 L 350.307,256.586 c -0.582,-4.101 2.271,-7.897 6.372,-8.479 4.102,-0.575 7.897,2.271 8.479,6.372 l 16.877,118.945 c 0.582,4.101 -2.271,7.897 -6.372,8.479 -0.357,0.05 -0.713,0.075 -1.063,0.075 z"
       inkscape:connector-curvature="0"
       style="fill:#0097ff;fill-opacity:1" /></g><g
     style="fill:#0097ff;fill-opacity:1"
     transform="matrix(6.0776046,0,0,6.0776046,531.32198,-1401.5269)"
     id="g3762"><path
       id="path3760"
       d="m 137.399,381.978 c -0.351,0 -0.706,-0.024 -1.063,-0.075 -4.101,-0.582 -6.954,-4.378 -6.372,-8.479 l 16.877,-118.945 c 0.582,-4.101 4.376,-6.952 8.479,-6.372 4.101,0.582 6.954,4.378 6.372,8.479 L 144.816,375.53 c -0.531,3.744 -3.741,6.448 -7.417,6.448 z"
       inkscape:connector-curvature="0"
       style="fill:#0097ff;fill-opacity:1" /></g><g
     style="fill:#0097ff;fill-opacity:1"
     transform="matrix(6.0776046,0,0,6.0776046,531.32198,-1401.5269)"
     id="g3766"><path
       id="path3764"
       d="m 137.381,381.978 c -3.676,0 -6.887,-2.705 -7.417,-6.45 -0.581,-4.101 2.273,-7.896 6.375,-8.477 l 119.079,-16.858 c 4.107,-0.586 7.896,2.274 8.477,6.375 0.581,4.101 -2.273,7.896 -6.374,8.477 l -119.079,16.858 c -0.357,0.05 -0.712,0.075 -1.061,0.075 z"
       inkscape:connector-curvature="0"
       style="fill:#0097ff;fill-opacity:1" /></g><g
     style="fill:#0097ff;fill-opacity:1"
     transform="matrix(6.0776046,0,0,6.0776046,531.32198,-1401.5269)"
     id="g3770"><path
       id="path3768"
       d="m 256,440.044 c -4.142,0 -7.5,-3.358 -7.5,-7.5 V 79.456 c 0,-4.142 3.358,-7.5 7.5,-7.5 4.143,0 7.5,3.358 7.5,7.5 v 353.089 c 0,4.142 -3.357,7.499 -7.5,7.499 z"
       inkscape:connector-curvature="0"
       style="fill:#0097ff;fill-opacity:1" /></g><g
     style="fill:#0097ff;fill-opacity:1"
     transform="matrix(6.0776046,0,0,6.0776046,531.32198,-1401.5269)"
     id="g3774"><path
       id="path3772"
       d="m 486.5,263.5 h -415 c -4.142,0 -7.5,-3.358 -7.5,-7.5 0,-4.142 3.358,-7.5 7.5,-7.5 h 415 c 4.143,0 7.5,3.358 7.5,7.5 0,4.142 -3.357,7.5 -7.5,7.5 z"
       inkscape:connector-curvature="0"
       style="fill:#0097ff;fill-opacity:1" /></g><g
     style="fill:#0097ff;fill-opacity:1"
     transform="matrix(6.0776046,0,0,6.0776046,531.32198,-1401.5269)"
     id="g3778"><path
       id="path3776"
       d="m 137.395,145.025 c -0.639,0 -1.289,-0.083 -1.936,-0.255 L 65.137,126.039 c -4.002,-1.066 -6.383,-5.175 -5.316,-9.178 1.066,-4.002 5.175,-6.383 9.178,-5.316 l 70.322,18.731 c 4.002,1.066 6.383,5.175 5.316,9.178 -0.893,3.356 -3.927,5.571 -7.242,5.571 z"
       inkscape:connector-curvature="0"
       style="fill:#0097ff;fill-opacity:1" /></g><g
     style="fill:#0097ff;fill-opacity:1"
     transform="matrix(6.0776046,0,0,6.0776046,531.32198,-1401.5269)"
     id="g3782"><path
       id="path3780"
       d="m 374.604,145.025 c -3.315,0 -6.349,-2.216 -7.242,-5.571 -1.066,-4.003 1.314,-8.112 5.316,-9.178 L 443,111.545 c 4.002,-1.067 8.112,1.314 9.178,5.316 1.066,4.003 -1.314,8.112 -5.316,9.178 L 376.54,144.77 c -0.646,0.173 -1.297,0.255 -1.936,0.255 z"
       inkscape:connector-curvature="0"
       style="fill:#0097ff;fill-opacity:1" /></g><g
     style="fill:#0097ff;fill-opacity:1"
     transform="matrix(6.0776046,0,0,6.0776046,531.32198,-1401.5269)"
     id="g3786"><path
       id="path3784"
       d="m 256.476,86.957 c -2.49,0 -4.924,-1.238 -6.351,-3.499 -2.21,-3.503 -1.162,-8.135 2.341,-10.345 l 71.26,-44.956 c 3.502,-2.21 8.136,-1.162 10.345,2.341 2.211,3.503 1.162,8.135 -2.341,10.345 l -71.26,44.956 c -1.241,0.784 -2.626,1.158 -3.994,1.158 z"
       inkscape:connector-curvature="0"
       style="fill:#0097ff;fill-opacity:1" /></g><g
     style="fill:#0097ff;fill-opacity:1"
     transform="matrix(6.0776046,0,0,6.0776046,531.32198,-1401.5269)"
     id="g3790"><path
       id="path3788"
       d="m 256.461,86.957 c -1.354,0 -2.724,-0.366 -3.957,-1.134 L 180.307,40.867 c -3.516,-2.189 -4.592,-6.815 -2.402,-10.331 2.19,-3.516 6.813,-4.592 10.331,-2.402 l 72.197,44.956 c 3.517,2.189 4.592,6.815 2.402,10.331 -1.421,2.282 -3.869,3.536 -6.374,3.536 z"
       inkscape:connector-curvature="0"
       style="fill:#0097ff;fill-opacity:1" /></g><g
     style="fill:#0097ff;fill-opacity:1"
     transform="matrix(6.0776046,0,0,6.0776046,531.32198,-1401.5269)"
     id="g3794"><path
       id="path3792"
       d="m 374.614,145.025 c -2.851,0 -5.574,-1.633 -6.831,-4.396 L 320.902,37.606 c -1.716,-3.77 -0.051,-8.217 3.72,-9.933 3.771,-1.716 8.218,-0.049 9.933,3.72 l 46.881,103.023 c 1.716,3.77 0.051,8.217 -3.72,9.933 -1.007,0.459 -2.064,0.676 -3.102,0.676 z"
       inkscape:connector-curvature="0"
       style="fill:#0097ff;fill-opacity:1" /></g><g
     style="fill:#0097ff;fill-opacity:1"
     transform="matrix(6.0776046,0,0,6.0776046,531.32198,-1401.5269)"
     id="g3798"><path
       id="path3796"
       d="m 137.386,145.025 c -1.039,0 -2.095,-0.217 -3.102,-0.675 -3.77,-1.716 -5.436,-6.163 -3.72,-9.933 L 177.445,31.394 c 1.715,-3.771 6.163,-5.435 9.933,-3.72 3.77,1.716 5.436,6.163 3.72,9.933 L 144.217,140.63 c -1.258,2.763 -3.982,4.395 -6.831,4.395 z"
       inkscape:connector-curvature="0"
       style="fill:#0097ff;fill-opacity:1" /></g><g
     style="fill:#0097ff;fill-opacity:1"
     transform="matrix(6.0776046,0,0,6.0776046,531.32198,-1401.5269)"
     id="g3802"><path
       id="path3800"
       d="m 184.279,485.001 c -2.49,0 -4.924,-1.238 -6.351,-3.499 -2.21,-3.503 -0.516,-6.164 2.987,-8.374 l 34.574,-24.19 36.04,-22.737 c 3.506,-2.21 8.136,-1.161 10.345,2.341 2.211,3.503 1.162,8.135 -2.341,10.345 l -18.6,11.734 -53.039,32.038 c -1.243,0.784 -2.248,2.342 -3.615,2.342 z"
       inkscape:connector-curvature="0"
       style="fill:#0097ff;fill-opacity:1" /></g><g
     style="fill:#0097ff;fill-opacity:1"
     transform="matrix(6.0776046,0,0,6.0776046,531.32198,-1401.5269)"
     id="g3806"><path
       id="path3804"
       d="m 327.722,485.001 c -1.354,0 -2.424,-3.786 -3.658,-4.554 l -50.187,-27.644 -22.31,-13.892 c -3.516,-2.189 -4.592,-6.815 -2.402,-10.331 2.19,-3.516 6.816,-4.591 10.331,-2.402 l 46.136,28.728 24.901,16.861 c 3.517,2.189 5.752,6.182 3.563,9.698 -1.422,2.282 -3.87,3.536 -6.374,3.536 z"
       inkscape:connector-curvature="0"
       style="fill:#0097ff;fill-opacity:1" /></g><g
     style="fill:#0097ff;fill-opacity:1"
     transform="matrix(6.0776046,0,0,6.0776046,531.32198,-1401.5269)"
     id="g3810"><path
       id="path3808"
       d="m 327.724,485.002 c -1.039,0 -2.094,-0.217 -3.102,-0.675 -3.771,-1.716 -5.436,-6.163 -3.72,-9.933 l 46.881,-103.023 c 1.716,-3.77 6.161,-5.433 9.933,-3.72 3.771,1.716 5.436,6.163 3.72,9.933 l -46.881,103.023 c -1.257,2.762 -3.982,4.395 -6.831,4.395 z"
       inkscape:connector-curvature="0"
       style="fill:#0097ff;fill-opacity:1" /></g><g
     style="fill:#0097ff;fill-opacity:1"
     transform="matrix(6.0776046,0,0,6.0776046,531.32198,-1401.5269)"
     id="g3814"><path
       id="path3812"
       d="m 184.276,485.002 c -2.85,0 -3.636,-2.767 -4.893,-5.53 l -34.057,-69.449 -14.762,-32.44 c -1.715,-3.77 -0.05,-8.217 3.72,-9.933 3.769,-1.714 8.217,-0.05 9.933,3.72 l 26.542,58.327 17.816,45.984 c 1.715,3.77 2.573,6.93 -1.197,8.646 -1.007,0.458 -2.063,0.675 -3.102,0.675 z"
       inkscape:connector-curvature="0"
       style="fill:#0097ff;fill-opacity:1" /></g><g
     style="fill:#0097ff;fill-opacity:1"
     transform="matrix(6.0776046,0,0,6.0776046,531.32198,-1401.5269)"
     id="g3818"><path
       id="path3816"
       d="m 67.063,400.71 c -3.316,0 -6.349,-2.216 -7.242,-5.571 -1.066,-4.003 1.44,-6.609 5.442,-7.675 l 36.388,-11.229 33.808,-9.005 c 4.003,-1.067 8.112,1.314 9.178,5.316 1.066,4.003 -1.314,8.112 -5.316,9.178 l -22.747,6.059 -48.074,9.316 c -0.647,0.172 -0.797,3.611 -1.437,3.611 z"
       inkscape:connector-curvature="0"
       style="fill:#0097ff;fill-opacity:1" /></g><g
     style="fill:#0097ff;fill-opacity:1"
     transform="matrix(6.0776046,0,0,6.0776046,531.32198,-1401.5269)"
     id="g3822"><path
       id="path3820"
       d="m 444.937,400.71 c -0.64,0 -1.288,-0.083 -1.936,-0.255 l -70.322,-18.731 c -4.002,-1.066 -6.383,-5.175 -5.316,-9.178 1.067,-4.003 5.174,-6.381 9.178,-5.316 l 70.322,18.731 c 4.002,1.066 6.383,5.175 5.316,9.178 -0.894,3.355 -3.927,5.571 -7.242,5.571 z"
       inkscape:connector-curvature="0"
       style="fill:#0097ff;fill-opacity:1" /></g><g
     style="fill:#0097ff;fill-opacity:1"
     transform="matrix(6.0776046,0,0,6.0776046,531.32198,-1401.5269)"
     id="g3826"><path
       id="path3824"
       d="m 84.491,263.001 c -3.73,0 -6.962,-2.78 -7.434,-6.578 l -5.75,-46.336 -10.25,-90.664 c -0.51,-4.11 1.409,-7.856 5.52,-8.366 4.108,-0.512 6.856,2.409 7.366,6.52 l 7.338,51.074 10.662,85.926 c 0.51,4.11 -2.409,7.856 -6.52,8.366 -0.313,0.039 -0.625,0.058 -0.932,0.058 z"
       inkscape:connector-curvature="0"
       style="fill:#0097ff;fill-opacity:1" /></g><g
     style="fill:#0097ff;fill-opacity:1"
     transform="matrix(6.0776046,0,0,6.0776046,531.32198,-1401.5269)"
     id="g3830"><path
       id="path3828"
       d="m 67.509,400.001 c -0.308,0 -0.619,-0.019 -0.933,-0.058 -4.111,-0.51 -5.03,-3.256 -4.52,-7.366 L 72.385,292.23 77.057,254.576 c 0.51,-4.111 4.256,-7.031 8.366,-6.52 4.111,0.51 7.03,4.256 6.52,8.366 l -8.665,69.832 -10.335,67.168 c -0.471,3.799 -1.703,6.579 -5.434,6.579 z"
       inkscape:connector-curvature="0"
       style="fill:#0097ff;fill-opacity:1" /></g><g
     transform="matrix(6.0776046,0,0,6.0776046,531.32198,-1401.5269)"
     id="g3846"
     style="fill:#0097ff;fill-opacity:1"><path
       style="fill:#0097ff;fill-opacity:1"
       id="path3832"
       d="M 61.01,256.702 62.898,248.5 H 27.5 c -0.753,0 -1.479,0.114 -2.165,0.32 L 23,256 l 2.335,7.18 c 0.686,0.206 1.412,0.32 2.165,0.32 h 35.687 z"
       inkscape:connector-curvature="0" /><path
       style="fill:#0097ff;fill-opacity:1"
       id="path3834"
       d="m 183.999,477.348 h 14.57 l 42.363,-26.726 -25.444,-1.684 -35.22,22.219 c -0.843,0.532 -1.54,1.206 -2.088,1.969 z"
       inkscape:connector-curvature="0" /><path
       style="fill:#0097ff;fill-opacity:1"
       id="path3836"
       d="m 313.295,477.348 h 14.706 l 5.818,-4.222 c -0.556,-0.775 -1.267,-1.457 -2.127,-1.992 l -26.062,-16.228 -31.754,-2.102 z"
       inkscape:connector-curvature="0" /><path
       style="fill:#0097ff;fill-opacity:1"
       id="path3838"
       d="m 171.999,468.639 12,8.709 h 7.771 c -0.02,-0.991 -0.235,-1.995 -0.671,-2.954 L 170.76,429.697 145.327,410.023 Z"
       inkscape:connector-curvature="0" /><path
       style="fill:#0097ff;fill-opacity:1"
       id="path3840"
       d="m 67.499,392.8 8.118,5.892 40.957,-10.909 -14.927,-11.547 -36.384,9.691 z"
       inkscape:connector-curvature="0" /><path
       style="fill:#0097ff;fill-opacity:1"
       id="path3842"
       d="m 62.092,135.822 9.367,75.491 9.821,-42.662 -6.338,-51.074 c -0.131,-1.057 -0.479,-2.033 -0.99,-2.895 l -6.454,4.518 z"
       inkscape:connector-curvature="0" /><path
       style="fill:#0097ff;fill-opacity:1"
       id="path3844"
       d="m 73.422,397.099 c 0.803,-1.032 1.349,-2.284 1.521,-3.675 l 8.335,-67.168 -10.893,-34.026 -10.383,83.672 5.497,16.899 z"
       inkscape:connector-curvature="0" /></g><g
     style="fill:#0097ff;fill-opacity:1"
     transform="matrix(6.0776046,0,0,6.0776046,531.32198,-1401.5269)"
     id="g3850"><path
       id="path3848"
       d="m 427.51,264.001 c -0.309,0 -0.62,-0.019 -0.934,-0.058 -4.11,-0.51 -7.029,-4.256 -6.52,-8.366 l 17,-137 c 0.511,-4.112 4.267,-7.031 8.367,-6.52 4.11,0.51 7.029,4.256 6.52,8.366 l -17,137 c -0.471,3.798 -3.704,6.578 -7.433,6.578 z"
       inkscape:connector-curvature="0"
       style="fill:#0097ff;fill-opacity:1" /></g><g
     style="fill:#0097ff;fill-opacity:1"
     transform="matrix(6.0776046,0,0,6.0776046,531.32198,-1401.5269)"
     id="g3854"><path
       id="path3852"
       d="m 444.49,400.001 c -3.728,0 -6.958,-2.776 -7.433,-6.571 l -17,-136 c -0.514,-4.11 2.402,-7.858 6.512,-8.372 4.113,-0.515 7.859,2.401 8.373,6.512 l 17,136 c 0.514,4.11 -2.402,7.858 -6.512,8.372 -0.316,0.039 -0.629,0.059 -0.94,0.059 z"
       inkscape:connector-curvature="0"
       style="fill:#0097ff;fill-opacity:1" /></g><g
     transform="matrix(6.0776046,0,0,6.0776046,531.32198,-1401.5269)"
     id="g3902"
     style="fill:#ff0300;fill-opacity:1"><path
       style="fill:#ff0300;fill-opacity:1"
       id="path3856"
       d="m 512,256 c 0,-12.703 -10.297,-23 -23,-23 -1.848,0 -3.644,0.218 -5.366,0.629 C 473.52,236.047 467,245.145 467,256 c 0,12.703 9.297,22 22,22 10.855,0 19.954,-6.52 22.371,-16.634 C 511.782,259.644 512,257.848 512,256 Z"
       inkscape:connector-curvature="0" /><path
       style="fill:#ff0300;fill-opacity:1"
       id="path3858"
       d="m 451,256 c 0,-12.703 -10.297,-23 -23,-23 -1.848,0 -3.644,0.218 -5.366,0.629 C 412.52,236.047 406,245.145 406,256 c 0,12.703 9.297,22 22,22 10.855,0 19.954,-6.52 22.371,-16.634 C 450.782,259.644 451,257.848 451,256 Z"
       inkscape:connector-curvature="0" /><path
       style="fill:#ff0300;fill-opacity:1"
       id="path3860"
       d="m 381,256 c 0,-12.703 -10.297,-23 -23,-23 -1.848,0 -3.644,0.218 -5.366,0.629 C 342.52,236.047 336,245.145 336,256 c 0,12.703 9.297,22 22,22 10.855,0 19.954,-6.52 22.371,-16.634 C 380.782,259.644 381,257.848 381,256 Z"
       inkscape:connector-curvature="0" /><path
       style="fill:#ff0300;fill-opacity:1"
       id="path3862"
       d="m 177,256 c 0,-12.703 -10.297,-23 -23,-23 -1.848,0 -3.644,0.218 -5.366,0.629 C 138.52,236.046 132,245.145 132,256 c 0,12.703 9.297,22 22,22 10.855,0 19.954,-6.52 22.371,-16.634 C 176.782,259.644 177,257.848 177,256 Z"
       inkscape:connector-curvature="0" /><path
       style="fill:#ff0300;fill-opacity:1"
       id="path3864"
       d="m 279,256 c 0,-12.703 -10.297,-23 -23,-23 -1.848,0 -3.644,0.218 -5.366,0.629 C 240.52,236.047 234,245.145 234,256 c 0,12.703 9.297,22 22,22 10.855,0 19.954,-6.52 22.371,-16.634 C 278.782,259.644 279,257.848 279,256 Z"
       inkscape:connector-curvature="0" /><path
       style="fill:#ff0300;fill-opacity:1"
       id="path3866"
       d="m 279,154 c 0,-12.703 -10.297,-23 -23,-23 -1.848,0 -3.644,0.218 -5.366,0.629 C 240.52,134.047 234,143.145 234,154 c 0,12.703 9.297,22 22,22 10.855,0 19.954,-6.52 22.371,-16.634 C 278.782,157.644 279,155.848 279,154 Z"
       inkscape:connector-curvature="0" /><path
       style="fill:#ff0300;fill-opacity:1"
       id="path3868"
       d="m 279,358 c 0,-12.703 -10.297,-23 -23,-23 -1.848,0 -3.644,0.218 -5.366,0.629 C 240.52,338.047 234,347.145 234,358 c 0,12.703 9.297,22 22,22 10.855,0 19.954,-6.52 22.371,-16.634 C 278.782,361.644 279,359.848 279,358 Z"
       inkscape:connector-curvature="0" /><path
       style="fill:#ff0300;fill-opacity:1"
       id="path3870"
       d="m 279,433 c 0,-12.703 -10.297,-23 -23,-23 -1.848,0 -3.644,0.218 -5.366,0.629 C 240.52,413.047 234,422.145 234,433 c 0,12.703 9.297,22 22,22 10.855,0 19.954,-6.52 22.371,-16.634 C 278.782,436.644 279,434.848 279,433 Z"
       inkscape:connector-curvature="0" /><path
       style="fill:#ff0300;fill-opacity:1"
       id="path3872"
       d="m 279,79 c 0,-12.703 -10.297,-23 -23,-23 -1.848,0 -3.644,0.218 -5.366,0.629 C 240.52,59.047 234,68.145 234,79 c 0,12.703 9.297,22 22,22 10.855,0 19.954,-6.52 22.371,-16.634 C 278.782,82.644 279,80.848 279,79 Z"
       inkscape:connector-curvature="0" /><path
       style="fill:#ff0300;fill-opacity:1"
       id="path3874"
       d="m 468,393 c 0,-12.703 -10.297,-23 -23,-23 -1.848,0 -3.644,0.218 -5.366,0.629 C 429.52,373.047 423,382.145 423,393 c 0,12.703 9.297,22 22,22 10.855,0 19.954,-6.52 22.371,-16.634 C 467.782,396.644 468,394.848 468,393 Z"
       inkscape:connector-curvature="0" /><path
       style="fill:#ff0300;fill-opacity:1"
       id="path3876"
       d="m 397,374 c 0,-12.703 -10.297,-23 -23,-23 -1.848,0 -3.644,0.218 -5.366,0.629 C 358.52,354.047 352,363.145 352,374 c 0,12.703 9.297,22 22,22 10.855,0 19.954,-6.52 22.371,-16.634 C 396.782,377.644 397,375.848 397,374 Z"
       inkscape:connector-curvature="0" /><path
       style="fill:#ff0300;fill-opacity:1"
       id="path3878"
       d="m 160,374 c 0,-12.703 -10.297,-23 -23,-23 -1.848,0 -3.644,0.218 -5.366,0.629 C 121.52,354.046 115,363.145 115,374 c 0,12.703 9.297,22 22,22 10.855,0 19.954,-6.52 22.371,-16.634 C 159.782,377.644 160,375.848 160,374 Z"
       inkscape:connector-curvature="0" /><path
       style="fill:#ff0300;fill-opacity:1"
       id="path3880"
       d="m 397,137 c 0,-12.703 -10.297,-23 -23,-23 -1.848,0 -3.644,0.218 -5.366,0.629 C 358.52,117.047 352,126.145 352,137 c 0,12.703 9.297,22 22,22 10.855,0 19.954,-6.52 22.371,-16.634 C 396.782,140.644 397,138.848 397,137 Z"
       inkscape:connector-curvature="0" /><path
       style="fill:#ff0300;fill-opacity:1"
       id="path3882"
       d="m 160,137 c 0,-12.703 -10.297,-23 -23,-23 -1.848,0 -3.644,0.218 -5.366,0.629 C 121.52,117.046 115,126.145 115,137 c 0,12.703 9.297,22 22,22 10.855,0 19.954,-6.52 22.371,-16.634 C 159.782,140.644 160,138.848 160,137 Z"
       inkscape:connector-curvature="0" /><path
       style="fill:#ff0300;fill-opacity:1"
       id="path3884"
       d="m 91,393 c 0,-12.703 -10.297,-23 -23,-23 -1.848,0 -3.644,0.218 -5.366,0.629 C 52.52,373.046 46,382.145 46,393 c 0,12.703 9.297,22 22,22 10.855,0 19.954,-6.52 22.371,-16.634 C 90.782,396.644 91,394.848 91,393 Z"
       inkscape:connector-curvature="0" /><path
       style="fill:#ff0300;fill-opacity:1"
       id="path3886"
       d="m 351,477 c 0,-12.703 -10.297,-23 -23,-23 -1.848,0 -3.644,0.218 -5.366,0.629 C 312.52,457.047 306,466.145 306,477 c 0,12.703 9.297,22 22,22 10.855,0 19.954,-6.52 22.371,-16.634 C 350.782,480.644 351,478.848 351,477 Z"
       inkscape:connector-curvature="0" /><path
       style="fill:#ff0300;fill-opacity:1"
       id="path3888"
       d="m 207,477 c 0,-12.703 -10.297,-23 -23,-23 -1.848,0 -3.644,0.218 -5.366,0.629 C 168.52,457.046 162,466.145 162,477 c 0,12.703 9.297,22 22,22 10.855,0 19.954,-6.52 22.371,-16.634 C 206.782,480.644 207,478.848 207,477 Z"
       inkscape:connector-curvature="0" /><path
       style="fill:#ff0300;fill-opacity:1"
       id="path3890"
       d="M 91,119 C 91,106.297 80.703,96 68,96 66.152,96 64.356,96.218 62.634,96.629 52.52,99.046 46,108.145 46,119 c 0,12.703 9.297,22 22,22 10.855,0 19.954,-6.52 22.371,-16.634 C 90.782,122.644 91,120.848 91,119 Z"
       inkscape:connector-curvature="0" /><path
       style="fill:#ff0300;fill-opacity:1"
       id="path3892"
       d="m 468,119 c 0,-12.703 -10.297,-23 -23,-23 -1.848,0 -3.644,0.218 -5.366,0.629 C 429.52,99.047 423,108.145 423,119 c 0,12.703 9.297,22 22,22 10.855,0 19.954,-6.52 22.371,-16.634 C 467.782,122.644 468,120.848 468,119 Z"
       inkscape:connector-curvature="0" /><path
       style="fill:#ff0300;fill-opacity:1"
       id="path3894"
       d="m 351,35 c 0,-12.703 -10.297,-23 -23,-23 -1.848,0 -3.644,0.218 -5.366,0.629 C 312.52,15.047 306,24.145 306,35 c 0,12.703 9.297,22 22,22 10.855,0 19.954,-6.52 22.371,-16.634 C 350.782,38.644 351,36.848 351,35 Z"
       inkscape:connector-curvature="0" /><path
       style="fill:#ff0300;fill-opacity:1"
       id="path3896"
       d="m 207,35 c 0,-12.703 -10.297,-23 -23,-23 -1.848,0 -3.644,0.218 -5.366,0.629 C 168.52,15.046 162,24.145 162,35 c 0,12.703 9.297,22 22,22 10.855,0 19.954,-6.52 22.371,-16.634 C 206.782,38.644 207,36.848 207,35 Z"
       inkscape:connector-curvature="0" /><path
       style="fill:#ff0300;fill-opacity:1"
       id="path3898"
       d="m 46,256 c 0,-12.703 -10.297,-23 -23,-23 -1.848,0 -3.644,0.218 -5.366,0.629 C 7.52,236.046 1,245.145 1,256 c 0,12.703 9.297,22 22,22 10.855,0 19.954,-6.52 22.371,-16.634 C 45.782,259.644 46,257.848 46,256 Z"
       inkscape:connector-curvature="0" /><path
       style="fill:#ff0300;fill-opacity:1"
       id="path3900"
       d="m 107,256 c 0,-12.703 -10.297,-23 -23,-23 -1.848,0 -3.644,0.218 -5.366,0.629 C 68.52,236.046 62,245.145 62,256 c 0,12.703 9.297,22 22,22 10.855,0 19.954,-6.52 22.371,-16.634 C 106.782,259.644 107,257.848 107,256 Z"
       inkscape:connector-curvature="0" /></g><g
     transform="matrix(6.0776046,0,0,6.0776046,531.32198,-1401.5269)"
     id="g3950"
     style="fill:#ff0300;fill-opacity:1"><path
       style="fill:#ff0300;fill-opacity:1"
       id="path3904"
       d="m 273,364 c -12.703,0 -23,-10.297 -23,-23 0,-1.848 0.224,-3.643 0.635,-5.364 C 240.522,338.053 233,347.145 233,358 c 0,12.703 10.297,23 23,23 10.855,0 19.947,-7.522 22.365,-17.636 C 276.643,363.776 274.848,364 273,364 Z"
       inkscape:connector-curvature="0" /><path
       style="fill:#ff0300;fill-opacity:1"
       id="path3906"
       d="m 273,439 c -12.703,0 -23,-10.297 -23,-23 0,-1.848 0.224,-3.643 0.635,-5.364 C 240.522,413.053 233,422.145 233,433 c 0,12.703 10.297,23 23,23 10.855,0 19.947,-7.522 22.365,-17.636 C 276.643,438.776 274.848,439 273,439 Z"
       inkscape:connector-curvature="0" /><path
       style="fill:#ff0300;fill-opacity:1"
       id="path3908"
       d="m 462,399 c -12.703,0 -23,-10.297 -23,-23 0,-1.848 0.224,-3.643 0.635,-5.364 C 429.522,373.053 422,382.145 422,393 c 0,12.703 10.297,23 23,23 10.855,0 19.947,-7.522 22.365,-17.636 C 465.643,398.776 463.848,399 462,399 Z"
       inkscape:connector-curvature="0" /><path
       style="fill:#ff0300;fill-opacity:1"
       id="path3910"
       d="m 391,380 c -12.703,0 -23,-10.297 -23,-23 0,-1.848 0.224,-3.643 0.635,-5.364 C 358.522,354.053 351,363.145 351,374 c 0,12.703 10.297,23 23,23 10.855,0 19.947,-7.522 22.365,-17.636 C 394.643,379.776 392.848,380 391,380 Z"
       inkscape:connector-curvature="0" /><path
       style="fill:#ff0300;fill-opacity:1"
       id="path3912"
       d="m 154,380 c -12.703,0 -23,-10.297 -23,-23 0,-1.848 0.224,-3.643 0.636,-5.364 C 121.522,354.053 114,363.145 114,374 c 0,12.703 10.297,23 23,23 10.855,0 19.947,-7.522 22.364,-17.636 C 157.643,379.776 155.848,380 154,380 Z"
       inkscape:connector-curvature="0" /><path
       style="fill:#ff0300;fill-opacity:1"
       id="path3914"
       d="m 85,399 c -12.703,0 -23,-10.297 -23,-23 0,-1.848 0.224,-3.643 0.636,-5.364 C 52.522,373.053 45,382.145 45,393 c 0,12.703 10.297,23 23,23 10.855,0 19.947,-7.522 22.364,-17.636 C 88.643,398.776 86.848,399 85,399 Z"
       inkscape:connector-curvature="0" /><path
       style="fill:#ff0300;fill-opacity:1"
       id="path3916"
       d="m 345,483 c -12.703,0 -23,-10.297 -23,-23 0,-1.848 0.224,-3.643 0.635,-5.364 C 312.522,457.053 305,466.145 305,477 c 0,12.703 10.297,23 23,23 10.855,0 19.947,-7.522 22.365,-17.636 C 348.643,482.776 346.848,483 345,483 Z"
       inkscape:connector-curvature="0" /><path
       style="fill:#ff0300;fill-opacity:1"
       id="path3918"
       d="m 201,483 c -12.703,0 -23,-10.297 -23,-23 0,-1.848 0.224,-3.643 0.636,-5.364 C 168.522,457.053 161,466.145 161,477 c 0,12.703 10.297,23 23,23 10.855,0 19.947,-7.522 22.364,-17.636 C 204.643,482.776 202.848,483 201,483 Z"
       inkscape:connector-curvature="0" /><path
       style="fill:#ff0300;fill-opacity:1"
       id="path3920"
       d="m 273,160 c -12.703,0 -23,-10.297 -23,-23 0,-1.848 0.224,-3.643 0.635,-5.364 C 240.522,134.053 233,143.145 233,154 c 0,12.703 10.297,23 23,23 10.855,0 19.947,-7.522 22.365,-17.636 C 276.643,159.776 274.848,160 273,160 Z"
       inkscape:connector-curvature="0" /><path
       style="fill:#ff0300;fill-opacity:1"
       id="path3922"
       d="m 391,143 c -12.703,0 -23,-10.297 -23,-23 0,-1.848 0.224,-3.643 0.635,-5.364 C 358.522,117.053 351,126.145 351,137 c 0,12.703 10.297,23 23,23 10.855,0 19.947,-7.522 22.365,-17.636 C 394.643,142.776 392.848,143 391,143 Z"
       inkscape:connector-curvature="0" /><path
       style="fill:#ff0300;fill-opacity:1"
       id="path3924"
       d="m 154,143 c -12.703,0 -23,-10.297 -23,-23 0,-1.848 0.224,-3.643 0.636,-5.364 C 121.522,117.053 114,126.145 114,137 c 0,12.703 10.297,23 23,23 10.855,0 19.947,-7.522 22.364,-17.636 C 157.643,142.776 155.848,143 154,143 Z"
       inkscape:connector-curvature="0" /><path
       style="fill:#ff0300;fill-opacity:1"
       id="path3926"
       d="m 85,125 c -12.703,0 -23,-10.297 -23,-23 0,-1.848 0.224,-3.643 0.636,-5.364 C 52.522,99.053 45,108.145 45,119 c 0,12.703 10.297,23 23,23 10.855,0 19.947,-7.522 22.364,-17.636 C 88.643,124.776 86.848,125 85,125 Z"
       inkscape:connector-curvature="0" /><path
       style="fill:#ff0300;fill-opacity:1"
       id="path3928"
       d="m 462,125 c -12.703,0 -23,-10.297 -23,-23 0,-1.848 0.224,-3.643 0.635,-5.364 C 429.522,99.053 422,108.145 422,119 c 0,12.703 10.297,23 23,23 10.855,0 19.947,-7.522 22.365,-17.636 C 465.643,124.776 463.848,125 462,125 Z"
       inkscape:connector-curvature="0" /><path
       style="fill:#ff0300;fill-opacity:1"
       id="path3930"
       d="m 273,85 c -12.703,0 -23,-10.297 -23,-23 0,-1.848 0.224,-3.643 0.635,-5.364 C 240.522,59.053 233,68.145 233,79 c 0,12.703 10.297,23 23,23 10.855,0 19.947,-7.522 22.365,-17.636 C 276.643,84.776 274.848,85 273,85 Z"
       inkscape:connector-curvature="0" /><path
       style="fill:#ff0300;fill-opacity:1"
       id="path3932"
       d="m 345,41 c -12.703,0 -23,-10.297 -23,-23 0,-1.848 0.224,-3.643 0.635,-5.364 C 312.522,15.053 305,24.145 305,35 c 0,12.703 10.297,23 23,23 10.855,0 19.947,-7.522 22.365,-17.636 C 348.643,40.776 346.848,41 345,41 Z"
       inkscape:connector-curvature="0" /><path
       style="fill:#ff0300;fill-opacity:1"
       id="path3934"
       d="m 201,41 c -12.703,0 -23,-10.297 -23,-23 0,-1.848 0.224,-3.643 0.636,-5.364 C 168.522,15.053 161,24.145 161,35 c 0,12.703 10.297,23 23,23 10.855,0 19.947,-7.522 22.364,-17.636 C 204.643,40.776 202.848,41 201,41 Z"
       inkscape:connector-curvature="0" /><path
       style="fill:#ff0300;fill-opacity:1"
       id="path3936"
       d="m 506,262 c -12.703,0 -23,-10.297 -23,-23 0,-1.848 0.224,-3.643 0.635,-5.364 C 473.522,236.053 466,245.145 466,256 c 0,12.703 10.297,23 23,23 10.855,0 19.947,-7.522 22.365,-17.636 C 509.643,261.776 507.848,262 506,262 Z"
       inkscape:connector-curvature="0" /><path
       style="fill:#ff0300;fill-opacity:1"
       id="path3938"
       d="m 445,262 c -12.703,0 -23,-10.297 -23,-23 0,-1.848 0.224,-3.643 0.635,-5.364 C 412.522,236.053 405,245.145 405,256 c 0,12.703 10.297,23 23,23 10.855,0 19.947,-7.522 22.365,-17.636 C 448.643,261.776 446.848,262 445,262 Z"
       inkscape:connector-curvature="0" /><path
       style="fill:#ff0300;fill-opacity:1"
       id="path3940"
       d="m 375,262 c -12.703,0 -23,-10.297 -23,-23 0,-1.848 0.224,-3.643 0.635,-5.364 C 342.522,236.053 335,245.145 335,256 c 0,12.703 10.297,23 23,23 10.855,0 19.947,-7.522 22.365,-17.636 C 378.643,261.776 376.848,262 375,262 Z"
       inkscape:connector-curvature="0" /><path
       style="fill:#ff0300;fill-opacity:1"
       id="path3942"
       d="m 171,262 c -12.703,0 -23,-10.297 -23,-23 0,-1.848 0.224,-3.643 0.636,-5.364 C 138.522,236.053 131,245.145 131,256 c 0,12.703 10.297,23 23,23 10.855,0 19.947,-7.522 22.364,-17.636 C 174.643,261.776 172.848,262 171,262 Z"
       inkscape:connector-curvature="0" /><path
       style="fill:#ff0300;fill-opacity:1"
       id="path3944"
       d="m 273,262 c -12.703,0 -23,-10.297 -23,-23 0,-1.848 0.224,-3.643 0.635,-5.364 C 240.522,236.053 233,245.145 233,256 c 0,12.703 10.297,23 23,23 10.855,0 19.947,-7.522 22.365,-17.636 C 276.643,261.776 274.848,262 273,262 Z"
       inkscape:connector-curvature="0" /><path
       style="fill:#ff0300;fill-opacity:1"
       id="path3946"
       d="m 40,262 c -12.703,0 -23,-10.297 -23,-23 0,-1.848 0.224,-3.643 0.636,-5.364 C 7.522,236.053 0,245.145 0,256 c 0,12.703 10.297,23 23,23 10.855,0 19.947,-7.522 22.364,-17.636 C 43.643,261.776 41.848,262 40,262 Z"
       inkscape:connector-curvature="0" /><path
       style="fill:#ff0300;fill-opacity:1"
       id="path3948"
       d="m 101,262 c -12.703,0 -23,-10.297 -23,-23 0,-1.848 0.224,-3.643 0.636,-5.364 C 68.522,236.053 61,245.145 61,256 c 0,12.703 10.297,23 23,23 10.855,0 19.947,-7.522 22.364,-17.636 C 104.643,261.776 102.848,262 101,262 Z"
       inkscape:connector-curvature="0" /></g></g><flowRoot
   xml:space="preserve"
   id="flowRoot4080"
   style="font-style:normal;font-weight:normal;font-size:40px;line-height:1.25;font-family:sans-serif;letter-spacing:0px;word-spacing:0px;fill:#0084e2;fill-opacity:1;stroke:none"
   transform="matrix(1.8713939,0,0,1.8713939,8285.6157,1081.738)"><flowRegion
     id="flowRegion4082"
     style="fill:#0084e2;fill-opacity:1"><rect
       id="rect4084"
       width="4548.1108"
       height="1878.0756"
       x="-4406.6895"
       y="1076.3225"
       style="fill:#0084e2;fill-opacity:1" /></flowRegion><flowPara
     id="flowPara4086"
     style="font-style:normal;font-variant:normal;font-weight:normal;font-stretch:normal;font-size:666.66668701px;font-family:Raleway;-inkscape-font-specification:Raleway;fill:#0084e2;fill-opacity:1">Nebula</flowPara></flowRoot></svg>